<?xml version="1.0" standalone="no"?>
<!DOCTYPE svg PUBLIC "-//W3C//DTD SVG 20010904//EN"
 "http://www.w3.org/TR/2001/REC-SVG-20010904/DTD/svg10.dtd">
<svg version="1.0" xmlns="http://www.w3.org/2000/svg"
 width="300.000000pt" height="324.000000pt" viewBox="0 0 300.000000 324.000000"
 preserveAspectRatio="xMidYMid meet">
<metadata>
Created by potrace 1.10, written by Peter Selinger 2001-2011
</metadata>
<g transform="translate(0.000000,324.000000) scale(0.100000,-0.100000)"
fill="#000000" stroke="none">
<path d="M768 2589 c-37 -21 -49 -137 -22 -196 14 -28 21 -33 39 -29 29 7 37
-2 23 -27 -8 -16 -7 -23 8 -34 62 -45 214 42 214 123 0 13 -13 33 -32 49 -28
24 -38 27 -78 22 -46 -6 -47 -5 -59 28 -11 30 -53 76 -70 75 -3 0 -14 -5 -23
-11z m74 -68 c32 -48 33 -49 76 -44 53 5 82 -16 82 -59 0 -49 -74 -106 -135
-104 -24 1 -31 6 -33 26 -2 14 -9 31 -15 38 -7 9 -7 16 1 24 18 18 14 63 -7
89 -21 26 -27 20 -34 -29 -2 -12 -9 -28 -15 -34 -9 -9 -11 2 -8 50 6 104 38
119 88 43z m-32 -76 c0 -24 -4 -47 -10 -50 -6 -4 -10 15 -10 50 0 35 4 54 10
50 6 -3 10 -26 10 -50z m-30 -45 c0 -5 -2 -10 -4 -10 -3 0 -8 5 -11 10 -3 6
-1 10 4 10 6 0 11 -4 11 -10z"/>
<path d="M892 2430 c-12 -5 -27 -22 -33 -36 -22 -59 49 -67 87 -10 29 46 2 68
-54 46z m30 -40 c-32 -30 -70 -42 -56 -17 18 31 39 47 63 47 l26 -1 -33 -29z"/>
<path d="M1893 2480 c-34 -14 -56 -54 -48 -89 7 -34 47 -71 76 -71 27 0 68 41
75 76 10 53 -52 104 -103 84z m65 -32 c20 -20 15 -76 -7 -88 -47 -25 -81 -2
-81 54 0 39 60 62 88 34z"/>
<path d="M2212 2410 c-43 -40 -18 -110 40 -110 36 0 71 31 71 63 0 60 -67 88
-111 47z m88 -40 c0 -22 -6 -33 -24 -41 -27 -13 -66 2 -66 26 0 34 13 45 51
45 37 0 39 -2 39 -30z"/>
<path d="M2394 2359 c-18 -20 -19 -43 -22 -341 -2 -241 1 -353 12 -453 9 -74
16 -190 16 -259 0 -116 1 -125 20 -131 11 -3 24 -4 29 -1 18 12 22 207 7 326
-10 78 -11 117 -4 121 10 6 39 105 79 269 25 100 22 166 -11 285 -34 122 -49
160 -71 183 -25 27 -31 27 -55 1z m51 -29 c10 -11 13 -20 7 -20 -6 0 -13 6
-16 13 -3 8 -9 6 -20 -7 -16 -20 -16 -20 -16 0 0 38 18 44 45 14z m9 -103 c4
-26 16 -73 27 -104 26 -77 24 -170 -5 -284 -14 -52 -24 -114 -24 -139 1 -25
-5 -57 -13 -70 -16 -28 -16 -29 -4 -150 10 -108 12 -231 4 -236 -4 -2 -5 -13
-2 -24 3 -11 1 -20 -5 -20 -7 0 -10 38 -9 103 0 92 -6 189 -20 272 -6 40 -10
409 -5 463 8 86 15 28 16 -147 1 -99 5 -183 10 -188 5 -4 6 129 4 306 -4 249
-2 308 7 290 7 -13 16 -46 19 -72z m-57 41 c-3 -8 -6 -5 -6 6 -1 11 2 17 5 13
3 -3 4 -12 1 -19z m103 -106 c0 -15 -2 -15 -10 -2 -13 20 -13 33 0 25 6 -3 10
-14 10 -23z m-95 -41 c3 -5 2 -12 -3 -15 -5 -3 -9 1 -9 9 0 17 3 19 12 6z"/>
<path d="M632 2351 c-8 -5 -7 -30 4 -91 16 -87 13 -166 -7 -217 l-12 -28 -8
30 c-5 17 -12 76 -15 132 -7 111 -13 129 -39 119 -16 -6 -17 -16 -11 -99 4
-50 11 -109 17 -131 6 -21 8 -40 6 -42 -2 -3 -19 18 -37 46 -28 43 -34 63 -39
133 -5 64 -9 82 -21 82 -12 0 -15 -17 -15 -90 0 -81 3 -95 28 -138 16 -27 42
-57 59 -67 30 -18 31 -20 34 -112 3 -51 9 -127 15 -168 10 -74 39 -446 39
-506 0 -36 26 -53 46 -32 10 10 11 54 4 203 -9 173 -16 243 -54 507 -12 82
-12 88 5 93 10 3 27 26 39 50 25 51 29 166 9 265 -11 58 -25 75 -47 61z m35
-253 c-3 -8 -6 -5 -6 6 -1 11 2 17 5 13 3 -3 4 -12 1 -19z m-143 -57 c-5 -5
-33 30 -34 43 0 4 9 -2 19 -15 11 -13 17 -26 15 -28z m53 -23 c4 10 8 10 20 1
11 -10 19 -10 33 -1 28 17 16 -8 -13 -29 -22 -16 -24 -15 -57 13 -22 18 -26
24 -11 16 19 -11 24 -11 28 0z m39 -215 c1 -27 7 -73 13 -103 23 -107 45 -496
29 -506 -4 -3 -8 5 -9 18 -6 159 -31 484 -40 518 -14 53 -11 120 5 120 1 0 2
-21 2 -47z"/>
<path d="M2060 2341 c-14 -27 -13 -37 6 -55 40 -40 101 3 75 53 -15 28 -66 29
-81 2z m56 -36 c-6 -17 -36 -9 -36 10 0 15 33 25 38 13 2 -5 1 -15 -2 -23z"/>
<path d="M1340 2334 c-137 -17 -300 -69 -300 -96 0 -10 42 0 50 12 5 8 94 36
136 44 125 23 245 29 366 16 186 -19 269 -51 379 -146 65 -56 133 -137 143
-172 4 -12 18 -33 32 -45 24 -22 24 -22 5 -51 l-19 -29 -12 44 c-19 73 -21 79
-31 79 -5 0 -9 -16 -9 -35 0 -42 -26 -98 -43 -92 -19 7 -12 104 9 128 10 11
24 17 31 15 7 -3 13 -1 13 4 0 12 -50 13 -66 2 -20 -13 -34 -50 -34 -91 0 -31
-9 -56 -37 -97 -21 -31 -39 -51 -41 -45 -2 6 6 44 18 84 25 83 24 120 -3 125
-23 5 -52 -21 -89 -78 l-28 -45 6 48 c7 57 -1 97 -20 97 -15 0 -26 -50 -26
-116 0 -30 -6 -46 -25 -64 -14 -13 -28 -21 -31 -17 -4 3 -1 34 5 68 6 34 8 66
5 70 -11 18 -23 8 -29 -23 -13 -55 -64 -160 -77 -156 -7 3 -18 24 -25 47 -7
24 -20 50 -30 58 -10 8 -13 12 -6 9 6 -4 24 4 39 17 23 20 25 26 15 45 -15 28
-29 28 -59 0 l-24 -23 7 25 c4 14 17 32 28 40 44 30 109 95 123 121 24 47 18
86 -16 104 -38 20 -70 6 -105 -45 -20 -29 -31 -36 -49 -33 -33 7 -216 -53
-251 -82 -36 -29 -16 -33 29 -6 29 18 81 36 189 66 48 14 49 13 43 -8 -4 -12
-14 -67 -23 -122 -19 -121 -26 -141 -31 -95 -4 35 -17 60 -32 60 -5 0 -17 -17
-27 -37 -20 -41 -43 -55 -43 -26 0 20 29 66 30 47 0 -5 -5 -15 -11 -21 -6 -6
-10 -16 -8 -22 2 -6 14 7 26 29 12 22 18 42 13 45 -13 8 -60 -43 -66 -74 -3
-16 -14 -31 -24 -34 -15 -4 -17 3 -16 51 1 51 -1 57 -26 71 -24 14 -29 14 -43
1 -29 -29 -29 -73 -1 -107 14 -17 26 -35 26 -41 0 -16 -69 -55 -85 -48 -8 3
-15 18 -15 34 0 32 44 149 66 173 19 21 18 29 -5 29 -41 0 -111 -87 -111 -139
0 -27 -62 -73 -92 -69 -20 3 -23 8 -21 48 2 82 82 250 119 250 14 0 15 -7 10
-42 -6 -37 -5 -40 9 -28 11 9 15 26 13 49 -3 35 -5 36 -40 35 -51 -2 -83 -25
-112 -82 -51 -101 -70 -209 -42 -247 18 -24 76 -15 122 20 24 19 34 22 34 12
0 -17 64 -77 82 -77 6 0 31 20 56 45 50 50 70 55 112 24 28 -21 30 -21 54 -5
15 9 26 21 26 27 0 5 -10 3 -22 -5 -12 -9 -28 -16 -35 -16 -20 0 -15 34 7 48
17 10 23 10 36 -3 9 -8 24 -15 36 -15 17 0 19 -4 13 -30 -4 -18 -3 -30 4 -30
14 0 31 33 31 59 0 12 4 21 9 21 10 0 15 -13 26 -67 8 -39 26 -56 57 -51 17 2
31 19 54 68 l32 65 -2 -40 c-1 -46 22 -59 55 -29 11 10 19 12 19 6 0 -21 29
-13 41 11 17 33 90 129 95 125 2 -3 -5 -36 -16 -74 -23 -80 -25 -117 -7 -132
18 -16 48 7 83 62 25 40 31 44 59 39 21 -3 37 0 47 11 14 14 16 13 21 -11 3
-18 -4 -38 -24 -67 -54 -77 -55 -147 -1 -154 62 -9 92 53 74 155 -9 52 -8 60
15 94 l24 36 44 -16 c50 -18 55 -32 33 -106 l-11 -40 -7 30 c-4 17 -14 47 -23
67 -8 20 -13 39 -9 42 3 3 -2 6 -10 6 -14 0 -12 -11 9 -72 45 -127 30 -264
-40 -375 -100 -159 -291 -314 -392 -319 -22 -1 -59 -5 -81 -9 -25 -4 -44 -3
-48 3 -3 6 21 14 62 21 108 19 182 61 287 165 50 50 100 106 110 124 11 17 23
32 27 32 4 0 8 5 8 12 0 6 6 19 13 27 35 44 54 223 28 268 -13 22 -14 17 -11
-77 3 -133 -53 -243 -193 -377 -99 -95 -191 -145 -299 -163 -92 -16 -293 -7
-368 15 -163 49 -397 231 -453 352 -19 41 -22 65 -22 168 0 99 4 134 24 198
14 44 30 77 38 77 7 0 19 13 28 30 23 45 133 158 180 186 83 48 184 67 365 67
262 1 361 -30 491 -151 42 -39 79 -68 83 -65 4 4 -28 41 -71 81 -78 75 -148
117 -213 128 -19 3 -42 8 -50 11 -8 3 -34 6 -57 7 -22 0 -39 4 -37 7 7 11
-229 10 -305 -2 -121 -18 -217 -56 -268 -105 -7 -7 -16 -14 -21 -16 -14 -6
-149 -172 -164 -203 -28 -55 -42 -139 -42 -260 -1 -105 2 -126 22 -170 26 -56
100 -137 182 -198 30 -23 64 -49 74 -59 11 -10 23 -18 27 -18 3 0 32 -15 64
-34 56 -34 119 -54 205 -63 25 -3 50 -9 55 -13 6 -4 31 -8 58 -8 121 -1 140
-2 135 -7 -7 -7 -188 -13 -205 -7 -7 2 -11 7 -8 11 2 4 -9 6 -24 3 -15 -2 -61
6 -102 18 -131 39 -272 130 -406 262 -76 74 -85 87 -104 151 -30 96 -23 230
16 337 15 41 35 86 45 100 10 14 21 40 25 57 9 43 85 146 124 169 17 10 31 22
31 26 0 10 -137 5 -147 -5 -3 -4 -21 -7 -39 -7 -36 0 -36 -1 -48 -80 -2 -19
-19 -114 -36 -210 -18 -104 -33 -230 -37 -311 -7 -156 -1 -170 74 -182 32 -5
48 -16 77 -51 95 -116 323 -258 469 -291 114 -26 358 -18 414 14 9 5 24 5 32
1 39 -20 260 -81 281 -78 19 2 28 17 52 93 48 152 76 260 128 509 38 182 48
242 39 252 -6 8 -35 21 -63 29 -66 20 -66 20 -99 87 -37 73 -181 214 -257 251
-97 47 -201 68 -355 72 -77 2 -156 1 -175 -1z m-382 -123 c1 -1 -16 -24 -38
-53 -23 -28 -48 -67 -56 -87 -36 -86 -58 -131 -65 -131 -5 0 -6 -8 -2 -17 4
-13 3 -15 -6 -7 -9 8 -7 35 8 115 11 57 21 120 23 139 2 27 8 35 28 40 20 5
96 6 108 1z m712 -16 c22 -27 -5 -91 -62 -146 -27 -27 -53 -49 -58 -49 -18 0
40 157 72 198 14 16 33 15 48 -3z m-120 -115 c-10 -30 -23 -97 -29 -149 -6
-51 -13 -96 -16 -99 -19 -19 18 224 42 276 23 48 24 35 3 -28z m-371 -173
c-17 -42 -36 -74 -41 -71 -5 3 -5 11 -1 17 5 7 15 30 22 52 15 42 41 88 47 82
2 -2 -10 -38 -27 -80z m623 11 c0 -83 -1 -88 -9 -88 -5 0 -8 15 -7 33 1 17 2
54 2 81 3 71 14 49 14 -26z m-547 18 c-6 -28 -3 -36 14 -45 16 -9 22 -8 30 6
12 20 14 13 5 -11 -8 -22 -41 -20 -54 3 -16 31 -12 81 7 81 2 0 1 -15 -2 -34z
m40 -16 c-4 -11 -11 -18 -16 -15 -11 7 -12 48 -2 59 11 11 25 -23 18 -44z
m280 8 c-6 -22 -6 -22 9 -4 9 11 16 15 16 9 0 -6 -7 -16 -15 -23 -8 -7 -15 -9
-15 -6 0 4 -9 2 -20 -4 -24 -13 -26 -2 -4 28 20 29 37 28 29 0z m355 -5 c0
-20 -3 -24 -11 -16 -7 7 -9 19 -6 27 10 24 17 19 17 -11z m-470 -25 c0 -36
-16 -36 -22 0 -3 19 0 29 9 29 8 0 13 -12 13 -29z m-683 -20 c-3 -8 -6 -5 -6
6 -1 11 2 17 5 13 3 -3 4 -12 1 -19z m1138 -5 c-4 -10 -11 -40 -15 -68 l-8
-50 -1 42 c0 23 4 54 11 68 13 28 24 35 13 8z m-925 -28 c0 -19 -4 -35 -10
-35 -5 0 -10 16 -10 35 0 19 5 35 10 35 6 0 10 -16 10 -35z m577 -17 c-3 -7
-5 -2 -5 12 0 14 2 19 5 13 2 -7 2 -19 0 -25z m17 -34 c3 -8 2 -12 -4 -9 -6 3
-10 10 -10 16 0 14 7 11 14 -7z m528 -51 c3 -65 -9 -98 -37 -98 -30 0 -32 55
-4 110 12 25 26 45 30 45 4 0 9 -26 11 -57z m-1352 -162 c0 -15 4 -31 9 -36 5
-6 12 -26 16 -45 l7 -34 -23 16 c-21 13 -24 24 -24 76 0 33 3 58 7 56 5 -3 8
-18 8 -33z m1407 -207 c-10 -59 -79 -278 -94 -295 -9 -10 -23 -15 -36 -12 -57
13 -187 57 -187 65 0 4 5 8 11 8 33 0 186 130 269 228 19 23 37 42 39 42 2 0
1 -16 -2 -36z"/>
<path d="M1610 2150 c0 -5 11 -10 24 -10 14 0 28 5 31 10 4 6 -7 10 -24 10
-17 0 -31 -4 -31 -10z"/>
<path d="M2168 2200 c-26 -27 -30 -36 -25 -68 7 -42 55 -92 88 -92 12 0 36 15
55 34 44 44 46 86 5 127 -40 40 -82 39 -123 -1z m123 -44 c2 -36 -2 -50 -22
-68 -49 -47 -124 12 -99 77 20 52 118 45 121 -9z"/>
<path d="M1730 2131 c13 -11 27 -19 30 -19 22 2 39 -9 91 -59 69 -66 94 -64
28 3 -52 53 -118 94 -151 94 l-23 0 25 -19z"/>
<path d="M1702 1999 c2 -6 8 -10 13 -10 5 0 11 4 13 10 2 6 -4 11 -13 11 -9 0
-15 -5 -13 -11z"/>
<path d="M1961 1894 c0 -11 3 -14 6 -6 3 7 2 16 -1 19 -3 4 -6 -2 -5 -13z"/>
<path d="M1020 1861 c0 -9 24 -21 42 -21 6 0 6 6 -2 15 -14 16 -40 20 -40 6z"/>
<path d="M912 1837 c-46 -49 -15 -126 58 -148 49 -15 95 2 115 42 17 32 20 69
5 69 -5 0 -10 -8 -10 -19 0 -10 -9 -30 -21 -45 -24 -31 -67 -34 -110 -9 -38
22 -45 52 -24 93 21 40 15 47 -13 17z"/>
<path d="M1988 1825 c-7 -7 24 -75 34 -75 4 0 8 6 8 13 0 16 -35 69 -42 62z"/>
<path d="M1130 1758 c0 -15 5 -39 11 -55 6 -15 11 -71 13 -123 1 -81 5 -102
28 -145 57 -108 161 -178 268 -181 44 -1 81 -9 115 -25 71 -33 189 -33 260 1
106 51 215 199 234 320 9 57 -3 97 -14 44 -17 -86 -29 -124 -56 -171 -33 -57
-47 -64 -67 -33 -7 11 -18 17 -27 14 -12 -5 -15 2 -15 29 0 30 4 35 29 40 57
12 48 77 -10 77 -28 0 -29 1 -29 53 0 44 3 54 22 62 32 15 47 43 28 55 -23 15
-107 12 -122 -3 -10 -12 -15 -11 -28 6 -24 29 -50 10 -83 -57 -15 -30 -31 -57
-36 -60 -5 -3 -15 17 -21 45 -15 63 -42 94 -69 80 -25 -14 -34 -65 -32 -183 1
-53 -2 -99 -7 -102 -5 -3 -9 0 -10 7 -1 7 -6 65 -11 130 -7 78 -15 123 -25
132 -19 19 -30 19 -46 0 -11 -13 -11 -49 0 -193 6 -97 17 -183 22 -189 12 -15
48 -17 48 -3 0 16 27 12 34 -5 8 -21 43 -19 56 4 5 11 10 59 10 107 0 86 0 87
19 66 24 -29 35 -28 66 5 l25 28 0 -106 c0 -85 3 -109 16 -120 11 -9 20 -10
32 -2 14 8 18 35 22 159 6 141 6 143 8 44 1 -58 7 -122 12 -142 11 -38 14 -40
99 -51 27 -4 -79 -67 -136 -82 -67 -17 -132 -10 -206 24 -27 12 -63 19 -101
19 -40 0 -72 6 -107 22 -49 23 -49 24 -29 42 11 10 20 26 21 36 0 9 1 77 2
151 2 119 4 134 19 137 30 4 53 34 41 53 -8 12 -30 17 -99 19 -59 2 -85 -1
-79 -7 6 -6 43 -11 84 -13 48 -2 76 -7 79 -15 2 -9 -8 -13 -32 -13 l-36 0 -2
-167 c-3 -142 -5 -168 -18 -168 -13 0 -15 25 -13 168 l1 167 -24 0 c-14 0 -27
7 -30 15 -8 19 -24 20 -24 2 0 -8 11 -20 25 -27 24 -13 25 -17 26 -119 1 -58
2 -125 3 -148 0 -24 -2 -43 -5 -43 -15 0 -63 75 -75 118 -8 26 -13 82 -12 131
1 71 -2 93 -20 126 -20 38 -21 38 -22 13z m344 -121 c7 -87 20 -268 21 -282 0
-5 -7 -11 -16 -13 -17 -3 -18 -1 -35 276 -6 89 -5 102 9 97 10 -5 16 -27 21
-78z m120 71 c17 -67 51 -157 57 -151 4 4 25 42 47 82 21 41 44 77 50 79 9 3
12 -49 12 -197 0 -172 -2 -201 -15 -201 -13 0 -15 24 -15 158 l-1 157 -35 -68
c-19 -38 -40 -67 -45 -65 -6 2 -21 27 -33 55 -31 74 -36 74 -36 2 0 -117 -12
-229 -25 -229 -9 0 -11 35 -8 133 5 198 12 257 29 257 8 0 16 -6 18 -12z m313
-12 c-2 -6 -19 -10 -37 -8 l-33 2 6 -52 c4 -29 7 -65 7 -80 0 -24 4 -27 37
-30 52 -4 56 -28 4 -28 l-41 0 0 -64 0 -63 36 1 c51 1 54 -20 5 -28 -69 -11
-71 -8 -71 118 0 61 -3 141 -6 178 l-7 67 34 3 c45 4 71 -2 66 -16z"/>
<path d="M995 1608 c-24 -18 -27 -26 -22 -60 7 -51 32 -78 72 -78 70 0 104 96
49 139 -34 27 -64 27 -99 -1z m93 -25 c24 -47 -25 -106 -68 -83 -20 11 -31 61
-18 84 13 22 75 21 86 -1z"/>
<path d="M803 1328 c-37 -10 -68 -57 -58 -88 19 -60 117 -81 154 -34 26 33 27
64 1 96 -23 30 -52 38 -97 26z m83 -43 c34 -52 -22 -102 -83 -73 -33 16 -42
57 -18 82 26 26 81 21 101 -9z"/>
<path d="M2235 1220 c-17 -18 -17 -21 -1 -45 21 -32 39 -40 64 -26 26 14 33
45 15 70 -18 26 -55 27 -78 1z m63 -28 c3 -16 -2 -22 -17 -22 -24 0 -35 15
-27 36 9 23 40 13 44 -14z"/>
<path d="M986 1200 c-56 -17 -106 -83 -106 -139 0 -37 41 -87 77 -94 52 -10
87 15 122 85 23 46 30 73 26 91 -13 49 -64 74 -119 57z m82 -33 c19 -15 14
-72 -10 -114 -28 -50 -45 -63 -85 -63 -41 0 -73 33 -73 74 0 81 110 149 168
103z"/>
<path d="M695 1096 c-19 -28 -9 -58 25 -76 25 -13 25 -13 54 14 31 28 32 36 6
64 -28 29 -65 28 -85 -2z m61 -10 c19 -20 18 -34 -6 -41 -26 -8 -40 1 -40 26
0 11 5 17 10 14 6 -3 10 -1 10 4 0 15 9 14 26 -3z"/>
<path d="M1166 1009 c-38 -45 -22 -89 41 -115 57 -24 112 11 113 72 0 44 -35
74 -87 74 -34 0 -46 -6 -67 -31z m109 -5 c64 -48 -17 -125 -83 -78 -27 19 -28
48 -2 74 24 24 57 25 85 4z"/>
<path d="M2 228 c4 -10 315 -14 1501 -16 1346 -3 1497 -1 1497 13 0 13 -152
15 -1501 15 -1196 0 -1500 -3 -1497 -12z"/>
<path d="M81 167 c-23 -28 22 -129 50 -112 10 7 233 9 246 3 7 -3 148 -2 235
1 21 1 29 7 34 26 3 13 12 29 20 36 20 16 17 47 -3 52 -25 6 -77 2 -92 -8 -16
-9 -87 -9 -102 1 -22 13 -81 15 -96 3 -17 -14 -75 -14 -102 1 -11 6 -22 6 -25
1 -11 -16 -45 -19 -72 -5 -20 11 -30 11 -40 3 -11 -9 -17 -9 -28 0 -10 8 -16
8 -25 -2z m583 -29 c-3 -5 -12 -7 -19 -4 -20 7 -41 -22 -27 -36 20 -20 13 -32
-7 -14 -15 13 -20 14 -24 4 -3 -7 -6 6 -6 30 -1 23 4 42 10 42 6 0 8 -9 3 -22
-6 -21 -6 -22 12 -8 10 8 23 21 27 28 7 10 12 10 23 1 7 -6 11 -16 8 -21z
m-531 -10 c5 17 14 32 18 32 5 0 6 -7 3 -15 -5 -11 -2 -13 10 -9 9 3 23 1 31
-6 10 -9 15 -9 15 -1 0 6 10 11 23 10 l22 0 -22 -9 c-29 -12 -29 -28 -1 -39
15 -5 18 -10 9 -15 -7 -5 -20 -1 -31 9 -10 9 -27 15 -37 12 -13 -3 -12 -5 6
-6 17 -1 22 -4 15 -11 -17 -17 -44 0 -45 29 -1 24 -1 24 -10 -6 -5 -18 -12
-33 -15 -33 -7 0 -34 67 -33 82 0 7 8 -3 16 -22 l16 -35 10 33z m141 -16 c-4
-27 -4 -27 4 -2 8 24 52 43 52 22 0 -5 -8 -9 -17 -8 -10 0 -19 -7 -21 -16 -5
-28 27 -22 40 7 6 14 18 25 27 25 12 0 12 -3 3 -12 -7 -7 -12 -23 -13 -38 0
-14 -3 -19 -6 -12 -4 10 -8 10 -19 1 -11 -9 -18 -9 -29 1 -11 9 -15 9 -15 1 0
-7 -4 -9 -10 -6 -5 3 -10 25 -10 48 0 26 3 37 9 29 4 -7 6 -25 5 -40z m152 36
c5 -8 2 -9 -9 -5 -9 3 -19 2 -22 -3 -3 -5 4 -12 15 -15 31 -10 21 -40 -13 -41
-25 -1 -25 -1 -2 3 26 5 35 23 11 23 -19 0 -29 17 -22 35 6 18 32 20 42 3z
m61 -12 c23 -1 29 -6 31 -28 3 -25 1 -27 -37 -26 l-41 0 0 42 c0 28 3 36 9 27
5 -8 22 -14 38 -15z m83 -7 c0 -5 -4 -8 -9 -4 -19 11 -24 -18 -6 -32 17 -12
17 -13 2 -13 -20 0 -32 23 -23 45 6 17 36 21 36 4z"/>
<path d="M160 120 c0 -5 7 -10 16 -10 8 0 12 5 9 10 -3 6 -10 10 -16 10 -5 0
-9 -4 -9 -10z"/>
<path d="M450 110 c0 -11 5 -20 10 -20 6 0 10 9 10 20 0 11 -4 20 -10 20 -5 0
-10 -9 -10 -20z"/>
<path d="M486 123 c-12 -12 -6 -33 9 -33 8 0 15 6 15 14 0 17 -14 28 -24 19z"/>
<path d="M2161 137 c-16 -16 -13 -42 7 -60 15 -14 43 -17 163 -17 79 0 151 0
159 1 8 0 58 0 110 0 52 0 104 0 115 0 11 0 60 0 108 -1 48 0 92 2 98 5 16 11
10 64 -8 73 -10 5 -76 7 -148 5 -71 -2 -188 -4 -260 -3 -71 0 -137 0 -145 0
-8 0 -40 -1 -70 -3 -30 -1 -69 0 -87 4 -18 4 -36 2 -42 -4z m32 -22 c4 10 10
15 13 12 3 -3 0 -15 -6 -27 -10 -18 -14 -20 -21 -9 -5 8 -8 21 -8 29 0 10 3 9
8 -4 7 -19 8 -19 14 -1z m173 -12 c-10 -10 -19 5 -10 18 6 11 8 11 12 0 2 -7
1 -15 -2 -18z m118 -5 c-2 -3 2 -8 8 -11 7 -2 -21 -4 -63 -4 -71 0 -75 1 -60
16 14 15 17 15 23 1 4 -9 7 -10 7 -3 1 8 12 12 28 11 14 -2 28 3 30 9 4 10 7
10 18 0 7 -7 11 -15 9 -19z m186 5 c0 -12 -4 -23 -10 -23 -5 0 -7 7 -4 15 4 8
1 15 -5 15 -6 0 -11 -7 -11 -15 0 -8 -9 -15 -20 -15 -11 0 -20 5 -20 10 0 6
-5 10 -11 10 -5 0 -7 -4 -4 -10 4 -6 -10 -10 -34 -10 -30 0 -41 4 -41 15 0 20
110 22 111 3 0 -7 5 -4 10 8 14 28 39 27 39 -3z m40 1 c0 -8 4 -14 9 -14 6 0
8 9 6 20 -2 11 0 20 6 20 5 0 9 -8 9 -17 1 -17 1 -17 11 0 6 9 15 15 20 11 7
-4 7 -10 0 -18 -7 -8 -5 -12 8 -12 13 0 17 6 13 20 -3 13 -1 17 6 12 7 -4 12
-15 12 -24 0 -14 -11 -18 -65 -19 -57 -2 -65 0 -65 16 0 10 3 21 6 24 10 9 24
-2 24 -19z m130 16 c-13 -9 -13 -10 1 -10 8 0 20 5 27 12 9 9 12 6 12 -15 0
-15 -5 -27 -11 -27 -5 0 -7 5 -3 11 5 8 1 8 -14 0 -25 -14 -43 -14 -22 -1 10
6 11 10 3 10 -7 0 -13 7 -13 15 0 8 8 15 18 15 14 0 15 -2 2 -10z m70 -5 c0
-8 0 -18 1 -22 0 -4 -3 -9 -8 -10 -5 -2 -9 8 -9 22 0 14 4 25 8 25 4 0 8 -7 8
-15z m-621 -18 c1 16 51 13 51 -2 0 -17 -91 -19 -101 -3 -7 10 -9 10 -9 1 0
-7 -4 -13 -10 -13 -5 0 -10 6 -10 14 0 21 63 26 72 6 4 -9 7 -10 7 -3z"/>
</g>
</svg>
